<?xml version="1.0" encoding="UTF-8"?> <svg xmlns="http://www.w3.org/2000/svg" width="24" height="24" viewBox="0 0 24 24" fill="none"><path d="M3.79982 14.7998L1.35355 12.3536C1.03857 12.0386 1.26165 11.5 1.70711 11.5H21.1703C21.3703 11.5 21.5511 11.6192 21.6299 11.803L22.5614 13.9766C22.7313 14.3731 22.3418 14.8212 21.9171 14.7457C21.1877 14.6162 20.181 14.5 19 14.5C16.5 14.5 15 15 13 15C11 15 9 14.5 7.5 14.5C6.44204 14.5 5.04725 14.7591 4.27503 14.9346C4.10377 14.9736 3.92401 14.924 3.79982 14.7998Z" fill="#3D3937"></path><path d="M3.5 12L6 9H18.5L20 12" stroke="#3D3937" stroke-linejoin="round"></path><path d="M4 16.5C4.66667 16.3333 6.3 16 7.5 16C9.5 16 10.5 16.5 13 16.5C15.5 16.5 16 16 19 16C22 16 22.5 16.3333 23 16.5" stroke="#3D3937"></path><line x1="8.5" y1="9" x2="8.5" y2="12" stroke="#3D3937"></line><line x1="11.5" y1="9" x2="11.5" y2="12" stroke="#3D3937"></line><line x1="14.5" y1="9" x2="14.5" y2="12" stroke="#3D3937"></line><path d="M8.5 7.75V8.75C8.5 8.88807 8.61193 9 8.75 9H13.75C13.8881 9 14 8.88807 14 8.75V7.75C14 7.61193 13.8881 7.5 13.75 7.5H8.75C8.61193 7.5 8.5 7.61193 8.5 7.75Z" fill="#3D3937"></path><path d="M10 6.25V7.75C10 7.88807 10.1119 8 10.25 8H10.75C10.8881 8 11 7.88807 11 7.75V6.25C11 6.11193 10.8881 6 10.75 6H10.25C10.1119 6 10 6.11193 10 6.25Z" fill="#3D3937"></path></svg> 