<?xml version="1.0" encoding="UTF-8"?> <svg xmlns="http://www.w3.org/2000/svg" xmlns:xlink="http://www.w3.org/1999/xlink" width="27px" height="16px" viewBox="0 0 27 16" version="1.1"><title>Combined Shape</title><g id="Page-1" stroke="none" stroke-width="1" fill="none" fill-rule="evenodd"><g id="Desktop-/-Meetings-Fixed-Enquiry-/-On-load-/-V1" transform="translate(-259.000000, -2184.000000)" fill="#3E3A37" fill-rule="nonzero"><g id="Group-2" transform="translate(100.000000, 1601.000000)"><g id="Capacity" transform="translate(0.000000, 579.000000)"><g id="Hoxton-Meeting-Rooms-3" transform="translate(138.000000, 0.000000)"><path d="M32.5839041,17.6562355 C33.0524738,17.6562355 33.4330645,18.1815175 33.4330645,18.8287631 C33.4330645,19.4760086 33.0524738,20 32.5839041,20 L27.7854633,20 C27.3162418,20 26.9363028,19.4760086 26.9363028,18.8287631 C26.9363028,18.1815175 27.3162418,17.6562355 27.7854633,17.6562355 L32.5839041,17.6562355 Z M40.3892069,17.6562355 C40.85908,17.6562355 41.2396707,18.1815175 41.2396707,18.8287631 C41.2396707,19.4760086 40.85908,20 40.3892069,20 L35.5927212,20 C35.1215447,20 34.7422573,19.4760086 34.7422573,18.8287631 C34.7422573,18.1815175 35.1215447,17.6562355 35.5927212,17.6562355 L40.3892069,17.6562355 Z M34.0882149,7.08380544 C39.7957723,7.08445075 44.4228169,9.21332716 44.4228169,11.8384467 C44.4228169,14.4648568 39.7957723,16.5950238 34.0882149,16.5950238 C28.3800059,16.5950238 23.7516578,14.4648568 23.7516578,11.8384467 C23.7516578,9.21332716 28.3793542,7.08380544 34.0882149,7.08380544 Z M22.1222213,8.62370777 C22.7426363,8.62370777 23.2463976,8.99927796 23.2463976,9.46325557 L23.2463976,14.2146702 C23.2463976,14.6792932 22.7426363,15.0567993 22.1222213,15.0567993 C21.5031096,15.0567993 21,14.6792932 21,14.2146702 L21,9.46325557 C21,8.99927796 21.5037613,8.62370777 22.1222213,8.62370777 Z M46.0145855,8.62370786 C46.6174047,8.62370786 47.1074805,8.99927806 47.1074805,9.46325567 L47.1074805,14.2146703 C47.1074805,14.6792932 46.6180564,15.0567994 46.0145855,15.0567994 C45.410463,15.0567994 44.9210389,14.6792932 44.9210389,14.2146703 L44.9210389,9.46325567 C44.9210389,8.99927806 45.410463,8.62370786 46.0145855,8.62370786 Z M32.5839041,4 C33.0524738,4 33.4330645,4.52657264 33.4330645,5.17252757 C33.4330645,5.81977311 33.0524738,6.34570044 32.5839041,6.34570044 L27.7854633,6.34570044 C27.3162418,6.34570044 26.9363028,5.81977311 26.9363028,5.17252757 C26.9363028,4.52657264 27.3162418,4 27.7854633,4 L32.5839041,4 Z M40.3892069,4 C40.85908,4 41.2396707,4.52657264 41.2396707,5.17252757 C41.2396707,5.81977311 40.85908,6.34570044 40.3892069,6.34570044 L35.5927212,6.34570044 C35.1215447,6.34570044 34.7422573,5.81977311 34.7422573,5.17252757 C34.7422573,4.52657264 35.1215447,4 35.5927212,4 L40.3892069,4 Z" id="Combined-Shape"></path></g></g></g></g></g></svg> 