<?xml version="1.0" encoding="UTF-8"?> <svg xmlns="http://www.w3.org/2000/svg" xmlns:xlink="http://www.w3.org/1999/xlink" width="35px" height="16px" viewBox="0 0 35 16" version="1.1"><title>Combined Shape</title><g id="Page-1" stroke="none" stroke-width="1" fill="none" fill-rule="evenodd"><g id="Desktop-/-Meetings-Fixed-Enquiry-/-On-load-/-V1" transform="translate(-179.000000, -2203.000000)" fill="#3E3A37" fill-rule="nonzero"><g id="Group-2" transform="translate(100.000000, 1601.000000)"><g id="Capacity" transform="translate(0.000000, 579.000000)"><g id="Hoxton-Meeting-Rooms-2" transform="translate(0.000000, 20.000000)"><path d="M112.667888,13.7393773 C113.151956,14.2234448 113.261912,14.8968452 112.915127,15.2442807 L109.362045,18.7973624 C109.013959,19.144798 108.341209,19.0348418 107.856491,18.5507743 C107.372424,18.0660561 107.261817,17.3920051 107.609253,17.0445695 L111.162334,13.4914878 C111.50977,13.1440523 112.183821,13.2553097 112.667888,13.7393773 Z M94.6037764,13.7875238 C95.0501075,14.2338548 95.1320866,14.8773263 94.7846511,15.2247619 L91.2315694,18.7778436 C90.8841338,19.1252791 90.2393611,19.0452519 89.7923794,18.5989208 C89.3453977,18.1512884 89.2653704,17.5065157 89.6128059,17.1584295 L93.1658876,13.6053478 C93.5126726,13.2585629 94.1567947,13.340542 94.6037764,13.7875238 Z M99.0664366,13.5611701 L102.619518,17.1142518 C102.966954,17.4616874 102.875866,18.1175208 102.417173,18.5768645 C101.95848,19.0349069 101.303297,19.1253442 100.955861,18.7779086 L97.4027798,15.224827 C97.0553442,14.8773914 97.1477334,14.2235098 97.6057758,13.7654675 C98.0651195,13.3061238 98.719001,13.2137346 99.0664366,13.5611701 Z M80.9555444,13.4218706 L84.5086261,16.9749523 C84.8560617,17.3223879 84.7448042,17.9964389 84.2607367,18.4805064 C83.7766692,18.9645739 83.1032688,19.0745301 82.7558332,18.7277452 L79.2027515,15.1746635 C78.855316,14.8265773 78.9652722,14.1538275 79.4493397,13.6691094 C79.9340578,13.1850419 80.6081089,13.074435 80.9555444,13.4218706 Z M108.524882,7.65749815 C110.388932,9.52154852 110.388932,12.5437174 108.524882,14.4077678 C106.660832,16.2711675 103.638663,16.2711675 101.774612,14.4077678 C99.9112125,12.5437174 99.9112125,9.52154852 101.774612,7.65749815 C103.638663,5.79344779 106.660832,5.79344779 108.524882,7.65749815 Z M90.3426158,7.58729535 C92.2066662,9.45134572 92.2066662,12.4735146 90.3426158,14.337565 C88.4785654,16.2016154 85.4563965,16.2016154 83.5923461,14.337565 C81.7289464,12.4735146 81.7289464,9.45134572 83.5923461,7.58729535 C85.4563965,5.72389561 88.4785654,5.72389561 90.3426158,7.58729535 Z M102.568964,3.64045335 C103.053032,4.12452088 103.16494,4.79922253 102.817504,5.14665809 L99.2644228,8.69973979 C98.9169872,9.04717535 98.2422856,8.9359179 97.7575674,8.45185037 C97.2748012,7.96843347 97.1628931,7.29308119 97.5103286,6.94564562 L101.06341,3.39256393 C101.410846,3.04512836 102.085548,3.15703645 102.568964,3.64045335 Z M91.0544683,3.32301175 L94.60755,6.87609345 C94.9549856,7.22352901 94.8430775,7.89823066 94.3596606,8.38164756 C93.8755931,8.86571509 93.2008914,8.97762318 92.8534559,8.63018761 L89.3003742,5.07710592 C88.9529386,4.72967035 89.0641961,4.0549687 89.5482636,3.57025054 C90.0316805,3.08748427 90.7070328,2.97557619 91.0544683,3.32301175 Z M84.2346465,3.41845894 C84.6939902,3.87780259 84.7863794,4.53168413 84.4389438,4.8791197 L80.8858621,8.43220139 C80.5384266,8.77963696 79.8825931,8.68854898 79.4232495,8.22985596 C78.9652071,7.77116294 78.8747697,7.11598014 79.2222053,6.76854457 L82.775287,3.21546288 C83.1227226,2.86802731 83.7766041,2.96041654 84.2346465,3.41845894 Z M109.412144,3.21546288 L112.965226,6.76854457 C113.312661,7.11598014 113.232634,7.76075288 112.786303,8.20773459 C112.33867,8.6547163 111.693898,8.7347436 111.345811,8.38730803 L107.79273,4.83422634 C107.445945,4.4874414 107.527924,3.84331928 107.974906,3.39633757 C108.421237,2.95000649 109.064708,2.86802731 109.412144,3.21546288 Z" id="Combined-Shape"></path></g></g></g></g></g></svg> 