<?xml version="1.0" encoding="UTF-8"?> <svg xmlns="http://www.w3.org/2000/svg" xmlns:xlink="http://www.w3.org/1999/xlink" width="12px" height="16px" viewBox="0 0 12 16" version="1.1"><!-- Generator: Sketch 64 (93537) - https://sketch.com --><title>marker-location-645_8c5029cc-cfe0-41aa-8801-c452ea3dc083 3@2x</title><desc>Created with Sketch.</desc><g id="Page-1" stroke="none" stroke-width="1" fill="none" fill-rule="evenodd"><g id="Hox-/-Icons" transform="translate(-83.000000, -17.000000)" fill="#3E3A37"><g id="marker-location-645_8c5029cc-cfe0-41aa-8801-c452ea3dc083-3" transform="translate(83.000000, 17.000000)"><g id="marker-location-645_8c5029cc-cfe0-41aa-8801-c452ea3dc083-2"><g id="marker-location-645_8c5029cc-cfe0-41aa-8801-c452ea3dc083"><path d="M6,0 C9.31370846,0 12,2.91394328 12,6.50847452 C12,6.72542367 12,6.91525418 11.975,7.13220334 L11.975,7.13220334 L11.95,7.24067791 C11.475,12.3118644 6,16 6,16 C6,16 0.525,12.3661017 0.025,7.21355927 L0.025,7.21355927 L0.025,7.13220334 C0,6.94237283 0,6.72542367 0,6.50847452 C0,2.91394328 2.68629154,0 6,0 Z M6,4 C4.8954305,4 4,4.8954305 4,6 C4,7.1045695 4.8954305,8 6,8 C7.1045695,8 8,7.1045695 8,6 C8,4.8954305 7.1045695,4 6,4 Z" id="Combined-Shape"></path></g></g></g></g></g></svg> 