<?xml version="1.0" encoding="UTF-8"?> <svg xmlns="http://www.w3.org/2000/svg" xmlns:xlink="http://www.w3.org/1999/xlink" width="18px" height="14px" viewBox="0 0 18 14" version="1.1"><!-- Generator: Sketch 64 (93537) - https://sketch.com --><title>underground</title><desc>Created with Sketch.</desc><g id="City-Page" stroke="none" stroke-width="1" fill="none" fill-rule="evenodd"><g id="Hoxton-/-Desktop-/-City-Page-/-V26" transform="translate(-104.000000, -3275.000000)" fill="#3E3A37" fill-rule="nonzero"><g id="Group-15" transform="translate(0.000000, 1330.000000)"><g id="Group-10-Copy" transform="translate(80.000000, 1188.000000)"><g id="Group-14" transform="translate(24.000000, 752.000000)"><g id="Group-9" transform="translate(0.000000, 5.000000)"><g id="underground"><path d="M8.86666667,0 C5.483912,0 2.66522667,2.41024 2.01249067,5.6 L0.933333333,5.6 C0.466666667,5.6 1.42108547e-14,6.06666667 1.42108547e-14,6.53333333 L1.42108547e-14,7.46666667 C1.42108547e-14,7.93333333 0.466666667,8.39998133 0.933333333,8.39998133 L2.01249067,8.39998133 C2.665208,11.5898533 5.483912,13.9999813 8.86666667,13.9999813 C12.2494213,13.9999813 15.0681067,11.5898533 15.7208427,8.39998133 L16.8,8.39998133 C17.2666667,8.39998133 17.7333333,7.93331467 17.7333333,7.46666667 L17.7333333,6.53333333 C17.7333333,6.06666667 17.2666667,5.6 16.8,5.6 L15.7208427,5.6 C15.0681253,2.41024 12.2494213,0 8.86666667,0 Z M8.86666667,2.33333333 C10.7860293,2.33333333 12.4771733,3.88052 13.0666667,5.6 L4.66666667,5.6 C5.25616,3.88053867 6.947304,2.33333333 8.86666667,2.33333333 Z M4.66666667,8.4 L13.0666667,8.4 C12.4771733,10.1194987 10.7860293,11.6666853 8.86666667,11.6666853 C6.947304,11.6666853 5.25616,10.1194987 4.66666667,8.4 Z" id="Shape"></path></g></g></g></g></g></g></g></svg> 