<?xml version="1.0" encoding="UTF-8"?> <!-- Generator: Adobe Illustrator 24.1.3, SVG Export Plug-In . SVG Version: 6.00 Build 0) --> <svg xmlns="http://www.w3.org/2000/svg" xmlns:xlink="http://www.w3.org/1999/xlink" version="1.1" id="Layer_1" x="0px" y="0px" viewBox="0 0 36.5 25.5" style="enable-background:new 0 0 36.5 25.5;" xml:space="preserve"> <style type="text/css"> .st0{fill:#3E3A37;} </style> <desc>Created with Sketch.</desc> <g> <g> <path class="st0" d="M15.1,25.5c-0.1,0-0.1,0-0.2,0c-2.3-0.3-4.5-0.9-6.5-1.8c-0.8-0.3-1.1-1.2-0.8-2c0.3-0.8,1.2-1.1,2-0.8 c1.7,0.8,3.6,1.3,5.7,1.6c0.8,0.1,1.4,0.9,1.3,1.7C16.5,24.9,15.9,25.5,15.1,25.5z M21.5,25.5c-0.7,0-1.4-0.6-1.5-1.3 c-0.1-0.8,0.5-1.6,1.3-1.7c2-0.3,4-0.8,5.7-1.6c0.8-0.3,1.6,0,2,0.8c0.3,0.8,0,1.6-0.8,2c-2,0.9-4.2,1.5-6.5,1.8 C21.6,25.5,21.5,25.5,21.5,25.5z M3.8,20.1c-0.4,0-0.8-0.2-1.1-0.5C1,17.6,0,15.3,0,12.9c0-0.8,0.7-1.5,1.5-1.5c0,0,0,0,0,0 C2.3,11.4,3,12,3,12.9c0,1.7,0.7,3.3,2,4.8c0.5,0.6,0.5,1.6-0.1,2.1C4.6,20,4.2,20.1,3.8,20.1z M32.7,20.1c-0.4,0-0.7-0.1-1-0.4 c-0.6-0.5-0.7-1.5-0.1-2.1c1.3-1.5,2-3.1,2-4.8c0-0.8,0.7-1.5,1.5-1.5s1.5,0.6,1.5,1.5v0.1c0,2.4-0.9,4.7-2.7,6.8 C33.5,19.9,33.1,20.1,32.7,20.1z M3.8,8.6c-0.3,0-0.7-0.1-1-0.4C2.2,7.7,2.1,6.7,2.7,6.1C4.1,4.5,6,3.1,8.3,2c0.8-0.3,1.6,0,2,0.7 c0.3,0.8,0,1.6-0.7,2c-1.9,0.9-3.5,2-4.6,3.3C4.6,8.4,4.2,8.6,3.8,8.6z M32.7,8.5c-0.4,0-0.8-0.2-1.1-0.5 c-1.1-1.3-2.8-2.4-4.6-3.3c-0.8-0.3-1.1-1.2-0.8-2c0.3-0.8,1.2-1.1,2-0.8c2.3,1,4.2,2.4,5.7,4c0.5,0.6,0.5,1.6-0.1,2.1 C33.4,8.4,33,8.5,32.7,8.5z M15.1,3.2c-0.7,0-1.4-0.5-1.5-1.3c-0.1-0.8,0.5-1.6,1.3-1.7C16,0.1,17.1,0,18.3,0 c1.1,0,2.2,0.1,3.3,0.2c0.8,0.1,1.4,0.9,1.3,1.7c-0.1,0.8-0.9,1.4-1.7,1.3c-1-0.1-2-0.2-2.9-0.2c0,0,0,0,0,0c-1,0-2,0.1-3,0.2 C15.2,3.2,15.1,3.2,15.1,3.2z"></path> </g> </g> </svg> 