<?xml version="1.0" encoding="UTF-8"?> <!-- Generator: Adobe Illustrator 24.1.3, SVG Export Plug-In . SVG Version: 6.00 Build 0) --> <svg xmlns="http://www.w3.org/2000/svg" xmlns:xlink="http://www.w3.org/1999/xlink" version="1.1" id="Layer_1" x="0px" y="0px" viewBox="0 0 37 16" style="enable-background:new 0 0 37 16;" xml:space="preserve"> <style type="text/css"> .st0{fill-rule:evenodd;clip-rule:evenodd;fill:#3E3A37;} </style> <desc>Created with Sketch.</desc> <g id="Page-1"> <path id="Fill-1" class="st0" d="M10,1.8c0,1-0.6,1.8-1.3,1.8H1.3C0.6,3.6,0,2.8,0,1.8S0.6,0,1.3,0h7.4C9.4,0,10,0.8,10,1.8 M36.7,1.8c0,1-0.6,1.8-1.3,1.8H28c-0.7,0-1.3-0.8-1.3-1.8S27.3,0,28,0h7.4C36.1,0,36.7,0.8,36.7,1.8 M23.3,1.8 c0,1-0.6,1.8-1.3,1.8h-7.4c-0.7,0-1.3-0.8-1.3-1.8S13.9,0,14.6,0H22C22.7,0,23.3,0.8,23.3,1.8 M10,13.3c0,1-0.6,1.8-1.3,1.8H1.3 c-0.7,0-1.3-0.8-1.3-1.8s0.6-1.8,1.3-1.8h7.4C9.4,11.5,10,12.3,10,13.3 M36.7,13.3c0,1-0.6,1.8-1.3,1.8H28c-0.7,0-1.3-0.8-1.3-1.8 s0.6-1.8,1.3-1.8h7.4C36.1,11.5,36.7,12.3,36.7,13.3 M23.3,13.3c0,1-0.6,1.8-1.3,1.8h-7.4c-0.7,0-1.3-0.8-1.3-1.8s0.6-1.8,1.3-1.8 H22C22.7,11.5,23.3,12.3,23.3,13.3 M10,7.6c0,1-0.6,1.8-1.3,1.8H1.3C0.6,9.4,0,8.6,0,7.6s0.6-1.8,1.3-1.8h7.4 C9.4,5.8,10,6.6,10,7.6 M36.7,7.6c0,1-0.6,1.8-1.3,1.8H28c-0.7,0-1.3-0.8-1.3-1.8s0.6-1.8,1.3-1.8h7.4C36.1,5.8,36.7,6.6,36.7,7.6 M23.3,7.6c0,1-0.6,1.8-1.3,1.8h-7.4c-0.7,0-1.3-0.8-1.3-1.8s0.6-1.8,1.3-1.8H22C22.7,5.8,23.3,6.6,23.3,7.6"></path> </g> </svg> 